<?xml version="1.0" standalone="no"?><!DOCTYPE svg PUBLIC "-//W3C//DTD SVG 1.1//EN" "http://www.w3.org/Graphics/SVG/1.1/DTD/svg11.dtd"><svg t="1598364582204" class="icon" viewBox="0 0 1024 1024" version="1.1" xmlns="http://www.w3.org/2000/svg" p-id="5863" xmlns:xlink="http://www.w3.org/1999/xlink" width="200" height="200"><defs><style type="text/css"></style></defs><path d="M927.3 840.1c-11.6-23.2-34.8-40.7-58.1-58.1-29-17.4-63.9-34.8-110.4-40.7 0 0-34.8 0-69.7-11.6-58.1-17.4-63.9-29-63.9-29v-46.5c5.8-69.7 40.7-104.5 69.7-139.4 5.8-11.6 17.4-17.4 23.2-29 29-40.7 29-87.1 29-87.1v-17.4c0-11.6-5.8-17.4-17.4-17.4V358c5.8-17.4 5.8-34.9 5.8-46.5 0-23.2 0-58.1-5.8-92.9 0 0-11.6-52.3-34.9-75.5-5.8-5.8-63.9-69.7-232.3-81.3h-87.1C358 67.6 352.2 79.2 352.2 85c0 11.6 5.8 17.4 5.8 23.2l-17.4 17.4s-40.7 40.7-46.5 87.1c-5.8 40.7-5.8 98.7 5.8 139.4v5.8c-5.8 5.8-17.4 17.4-17.4 34.8 0 5.8 0 46.5 29 87.1 5.8 11.6 11.6 23.2 23.2 29 29 34.9 63.9 75.5 63.9 139.4v46.5s-5.8 11.6-63.9 29L265 735.3c-40.7 11.6-81.3 23.2-104.5 40.7-23.2 17.4-46.5 34.8-58.1 58.1-23.2 34.8-23.2 69.7-23.2 75.5v29c0 11.6 5.8 17.4 17.4 17.4h830.6c11.6 0 17.4-5.8 17.4-17.4v-23.2c0.1-5.6 0.1-40.5-17.3-75.3z m-763.9 40.1c0.7-1.3 30-33.7 42.8-43.2 11.4-8.6 48.8-19.5 75.7-27.2l70.2-11.7 4.6-1.4c63.6-19.1 95.5-38.7 110-67.8 2-4 7-11.7 8-16 3.7-15.7 0-48.3 0-64.4 0-90.3-48.1-148-80-186.2L383 448.2l-3.2-1.6c-0.1-0.2-2.9-5.9-2.9-5.9l-3.5-4.9c-7.9-11.1-11.6-22.2-13.4-30.4 0 0 13.8-10.7 15.9-15.9 4.6-11.1 2.4-36.2 0-47.9-0.5-2.6-2.2-7.7-2.9-10.2-7.2-25.3-5.8-81.4-3.6-108.4 0-0.2 0.1-0.5 0.1-0.7 1.7-13.3 17.2-35.3 24.8-42.8 0 0 26.5-36 39.7-41.6 5.9-2.5 19.4-0.2 25.9 0 72.3 2.6 117.9 21.2 143.6 33.7 15.6 7.6 28.9 16.4 36.5 24.1l0.6 0.6c3.9 5.1 11.1 22.8 14.6 37 4.4 28 4.4 57 4.4 78.3 0 7.4 0 16.7-1.9 22.4-1 2.9-3.4 8.7-3.9 11.7-3.8 23.2 1.1 70.6 0 94.1-0.1 1.7-0.2 5.2-1 6.8-3.2 6.5-13 13-20.2 24.3-1.2 1.4-2.4 2.8-3.6 4.3-30.5 35.9-72.2 85.1-79.5 172.8 0 0-4.1 54.3-0.3 70.7 1 4.4 6 12 8 16 14.5 29 46.3 47.8 109 67.6 37 11.7 72.5 13.8 86.6 15 30.2 2.7 108.3 60.9 109.2 63H163.4z" fill="#1296db" p-id="5864"></path></svg>