<?xml version="1.0" standalone="no"?><!DOCTYPE svg PUBLIC "-//W3C//DTD SVG 1.1//EN" "http://www.w3.org/Graphics/SVG/1.1/DTD/svg11.dtd"><svg t="1598263652220" class="icon" viewBox="0 0 1024 1024" version="1.1" xmlns="http://www.w3.org/2000/svg" p-id="10075" xmlns:xlink="http://www.w3.org/1999/xlink" width="200" height="200"><defs><style type="text/css"></style></defs><path d="M1009.664 27.648C992.256 5.12 962.56-5.12 935.936 3.072l-883.712 235.52c-30.72 8.192-51.2 34.816-52.224 66.56 0 31.744 19.456 59.392 50.176 67.584l459.776 137.216 140.288 463.872C659.456 1003.52 686.08 1024 716.8 1024c31.744 0 59.392-20.48 67.584-52.224L1020.928 88.064c6.144-21.504 2.048-43.008-11.264-60.416zM84.992 306.176L884.736 92.16l-348.16 348.16L84.992 306.176z m632.832 633.856L583.68 497.664 926.72 153.6 717.824 940.032z" p-id="10076"></path><path d="M717.824 940.032L583.68 497.664 926.72 153.6z" fill="#F5CC3C" p-id="10077"></path></svg>