<?xml version="1.0" standalone="no"?><!DOCTYPE svg PUBLIC "-//W3C//DTD SVG 1.1//EN" "http://www.w3.org/Graphics/SVG/1.1/DTD/svg11.dtd"><svg t="1598320554452" class="icon" viewBox="0 0 1024 1024" version="1.1" xmlns="http://www.w3.org/2000/svg" p-id="7577" xmlns:xlink="http://www.w3.org/1999/xlink" width="200" height="200"><defs><style type="text/css"></style></defs><path d="M505.10001 933.755132c0 49.769927-72.757893 90.122868-162.513762 90.122868s-162.391762-40.353941-162.391762-90.122868 72.757893-89.999868 162.513762-89.999868 162.514762 40.352941 162.514762 90.121868z m175.476743-89.999868c-89.755869 0-162.513762 40.352941-162.513762 90.121868S590.819885 1024 680.576753 1024s162.513762-40.352941 162.513762-90.122868-72.879893-90.122868-162.513762-90.122868z" fill="#FFC716" p-id="7578"></path><path d="M870.849474 501.361766s-12.228982-12.227982-25.434962-24.455965V333.467012a333.465512 333.465512 0 1 0-666.932023 0v143.438789c-13.32898 12.227982-25.556963 24.455964-25.556963 24.455965-21.643968 33.016952-73.369893 117.269828-73.369893 196.875711s21.765968 93.179864 29.959957 93.791863 35.583948-6.96999 68.844899-58.329915c45.121934 149.91978 177.18774 258.506621 333.221512 258.506622S800.169578 883.620206 845.047512 733.700425c33.505951 51.602924 61.75291 59.306913 69.334899 58.572914s29.958956-14.306979 29.958956-93.790862-51.725924-163.85976-73.369893-196.509712z" fill="#37464F" p-id="7579"></path><path d="M266.648359 558.834681a429.336371 429.336371 0 0 0-3.667994 58.451915c0 182.079733 113.478834 330.164516 253.369629 330.164516s253.370629-147.595784 253.370628-330.164516a429.336371 429.336371 0 0 0-3.912994-58.451915z m157.62277-405.857405c-36.684946 0-67.255901 40.84294-67.255902 91.223866s30.081956 91.222866 67.255902 91.222867 67.255901-40.84294 67.255901-91.222867-30.081956-91.223866-67.255901-91.223866zM435.400112 281.252088c-13.57298 0-24.456964-16.751975-24.456964-37.417945s11.005984-37.418945 24.456964-37.418945 24.456964 16.752975 24.456964 37.418945-11.005984 37.417945-24.456964 37.417945z m166.304757-128.274812c-36.684946 0-67.255901 40.84294-67.255902 91.223866s30.081956 91.222866 67.255902 91.222867S668.95977 294.581068 668.95977 244.201142s-30.081956-91.223866-67.255901-91.223866z m11.372983 94.647861a1.833997 1.833997 0 0 1-1.834997 1.833998 1.711997 1.711997 0 0 1-1.711998-1.344998 24.456964 24.456964 0 0 0-20.66497-17.853974 24.456964 24.456964 0 0 0-20.17697 18.097973 1.711997 1.711997 0 0 1-1.589998 1.099999 1.833997 1.833997 0 0 1-1.833997-1.832998v-3.056995c0-20.66597 11.004984-37.419945 24.456964-37.419945s24.455964 16.753975 24.455964 37.419945v3.178995z" fill="#FFFFFF" p-id="7580"></path><path d="M247.939387 540.492708c-6.113991 30.569955-19.075972 167.894754-12.961981 198.46571s31.792953 25.434963 68.722899 25.800962 77.527886 10.149985 78.138886-34.727949 0.733999-133.288805 10.882984-165.937757-144.782788-23.600965-144.782788-23.600966z" fill="#FF3A2F" p-id="7581"></path><path d="M239.868399 606.036612l143.559789 46.466932a416.863389 416.863389 0 0 1 9.415987-88.165871c10.149985-32.649952-144.782788-23.844965-144.782788-23.844965-2.200997 11.127984-5.379992 36.684946-8.192988 65.543904z" fill="#DD2C00" p-id="7582"></path><path d="M512.559999 462.230823c111.888836 0 202.867703-40.71994 202.867703-65.909904 0-19.075972-90.733867-38.763943-202.623703-38.763943s-202.622703 17.730974-202.622703 38.763943c0 23.844965 90.733867 65.909903 202.622703 65.909904z" fill="#FFC716" p-id="7583"></path><path d="M514.638996 486.810787s128.519812 1.344998 231.114662-42.187938 101.616851-48.912928 112.866834-48.912929 24.456964 16.140976 30.081956 45.243934 12.227982 52.092924-12.227982 66.399903-180.979735 106.508844-357.922476 106.508844h-8.804987c-176.943741 0-333.954511-92.323865-357.922475-106.508844s-17.363975-36.684946-12.227982-66.399903 18.830972-45.243934 30.081955-45.243934 10.148985 4.890993 112.866835 48.912929S513.659998 486.810787 513.659998 486.810787z" fill="#FF3A2F" p-id="7584"></path></svg>