<?xml version="1.0" standalone="no"?><!DOCTYPE svg PUBLIC "-//W3C//DTD SVG 1.1//EN" "http://www.w3.org/Graphics/SVG/1.1/DTD/svg11.dtd"><svg t="1598263636377" class="icon" viewBox="0 0 1024 1024" version="1.1" xmlns="http://www.w3.org/2000/svg" p-id="9822" xmlns:xlink="http://www.w3.org/1999/xlink" width="200" height="200"><defs><style type="text/css"></style></defs><path d="M258.7960979911112 385.3957199644444c0 16.574904319999998 6.823933724444444 33.04269368888889 18.54023452444444 44.763651413333335 11.715136853333332 11.715136853333332 28.188747093333333 18.54023452444444 44.75899448888889 18.54023452444444 16.574904319999998 0 33.04269368888889-6.825097671111111 44.75899448888889-18.54023452444444 11.720957724444444-11.722122808888889 18.54023452444444-28.189912177777778 18.54023452444444-44.763651413333335 0-16.570247395555555-6.819275662222222-33.03803676444445-18.54023452444444-44.75899448888889-11.716300799999999-11.716300799999999-28.185254115555555-18.54139847111111-44.75899448888889-18.54139847111111-16.570247395555555 0-33.043857635555554 6.825097671111111-44.75899448888889 18.54139847111111C265.6200305777778 352.35768433777775 258.7960979911112 368.8254725688889 258.7960979911112 385.3957199644444L258.7960979911112 385.3957199644444zM258.7960979911112 385.3957199644444" fill="#FF9300" p-id="9823"></path><path d="M638.5996219733332 385.3957199644444c0 16.574904319999998 6.823933724444444 33.04269368888889 18.54023452444444 44.763651413333335 11.720957724444444 11.715136853333332 28.189912177777778 18.54023452444444 44.75899448888889 18.54023452444444 16.574904319999998 0 33.043857635555554-6.825097671111111 44.763651413333335-18.54023452444444 11.716300799999999-11.722122808888889 18.54023452444444-28.189912177777778 18.54023452444444-44.763651413333335 0-16.570247395555555-6.82276864-33.03803676444445-18.54023452444444-44.75899448888889-11.720957724444444-11.716300799999999-28.189912177777778-18.54139847111111-44.763651413333335-18.54139847111111-16.56908344888889 0-33.03920071111111 6.825097671111111-44.75899448888889 18.54139847111111C645.4223917511111 352.35768433777775 638.5996219733332 368.8254725688889 638.5996219733332 385.3957199644444L638.5996219733332 385.3957199644444zM638.5996219733332 385.3957199644444" fill="#FF9300" p-id="9824"></path><path d="M511.9988360533334 796.8017055288889c-88.61915363555555 0-177.24063630222224-44.361970346666666-227.88281344-113.94140615111111-19.042045724444446-25.319924622222224-31.60013255111111-56.92005603555555-44.36313429333334-82.23998065777778-6.277878897777779-19.043209671111114 6.282535822222221-37.979304391111114 19.043209671111114-44.36313429333334 19.042045724444446-6.277878897777779 31.598967466666664 6.282535822222221 37.97814044444444 19.042045724444446 6.282535822222221 25.32108856888889 19.043209671111114 44.36313429333334 31.60013255111111 63.299229013333324 50.64217713777778 63.30039295999999 113.94140615111111 95.0053114311111 183.52317212444444 95.0053114311111 69.57827185777778 0 139.26249585777776-31.60362439111111 177.24180024888886-88.62497564444445 12.657051875555556-19.038552746666664 25.319924622222224-44.25718328888888 31.59780352-63.30039295999999 6.3791729777777775-19.037388799999995 25.32108856888889-25.319924622222224 37.979304391111114-19.037388799999995 19.042045724444446 6.277878897777779 25.319924622222224 25.31643164444444 19.042045724444446 37.979304391111114-6.3791729777777775 31.598967466666664-25.319924622222224 56.92005603555555-44.358477368888884 82.23998065777778C689.2406363022222 752.5410292622221 600.6203175822222 796.8017055288889 511.9988360533334 796.8017055288889L511.9988360533334 796.8017055288889zM511.9988360533334 796.8017055288889" fill="#FF9300" p-id="9825"></path><path d="M511.9988360533334 1017.5951268977778c-276.3943310222222 0-505.59512689777785-229.19963079111108-505.59512689777785-505.59512689777785s229.2019598222222-505.59512689777785 505.59512689777785-505.59512689777785c276.39549496888884 0 505.59629084444447 229.19963079111108 505.59629084444447 505.59512689777785S788.3943310222223 1017.5951268977778 511.9988360533334 1017.5951268977778L511.9988360533334 1017.5951268977778zM511.9988360533334 73.85714346666668c-242.67052487111113 0-438.1416925866666 195.47233166222222-438.1416925866666 438.1428565333333s195.47116771555554 438.1428565333333 438.1416925866666 438.1428565333333c242.67168881777775 0 438.1428565333333-195.47233166222222 438.1428565333333-438.1428565333333S754.670524871111 73.85714346666668 511.9988360533334 73.85714346666668L511.9988360533334 73.85714346666668zM511.9988360533334 73.85714346666668" fill="#FF9300" p-id="9826"></path></svg>