<?xml version="1.0" standalone="no"?><!DOCTYPE svg PUBLIC "-//W3C//DTD SVG 1.1//EN" "http://www.w3.org/Graphics/SVG/1.1/DTD/svg11.dtd"><svg t="1598264264530" class="icon" viewBox="0 0 1024 1024" version="1.1" xmlns="http://www.w3.org/2000/svg" p-id="11040" xmlns:xlink="http://www.w3.org/1999/xlink" width="200" height="200"><defs><style type="text/css"></style></defs><path d="M942.944 449.408L589.664 82.016a114.624 114.624 0 0 0-165.504 0L70.976 449.408c-36.48 38.4-31.776 70.752-25.824 84.384a61.44 61.44 0 0 0 60.576 36.48h51.84v282.624c0 64.128 46.08 124.8 111.648 124.8h150.336V678.368c0-32.064-4.8-49.92 27.936-49.92h118.848c32.832 0 27.936 17.856 27.936 49.92v299.136h150.432c65.472 0 111.648-60.48 111.648-124.8V570.272h51.744a61.44 61.44 0 0 0 60.576-36.48c6.048-13.632 10.752-46.464-25.728-84.384z" fill="#00BFFF" p-id="11041"></path></svg>