<?xml version="1.0" standalone="no"?><!DOCTYPE svg PUBLIC "-//W3C//DTD SVG 1.1//EN" "http://www.w3.org/Graphics/SVG/1.1/DTD/svg11.dtd"><svg t="1598263657797" class="icon" viewBox="0 0 1024 1024" version="1.1" xmlns="http://www.w3.org/2000/svg" p-id="10201" xmlns:xlink="http://www.w3.org/1999/xlink" width="200" height="200"><defs><style type="text/css"></style></defs><path d="M529.7 860.5h348.5c19.2 0 34.8 15.6 34.8 34.8 0 19.2-15.6 34.8-34.8 34.8H529.7c-19.2 0-34.8-15.6-34.8-34.8 0-19.2 15.6-34.8 34.8-34.8z m-209.1 69.7h-0.5l-188.9-2.8c-9.6-0.1-18.7-4.2-25.1-11.3-6.5-7-9.8-16.5-9.1-26l14.7-206.3c0.6-8.3 4.1-16.1 10-22.1l536.5-541.4c29.5-29.5 80.5-29.4 109.8-0.1l135.9 136c30.3 30.3 30.3 79.4 0 109.7L345.2 920.1c-6.6 6.5-15.4 10.1-24.6 10.1z m-151.5-71.9l137.4 2 548.2-543.9c1.8-1.8 2.2-4 2.2-5.4 0-1.5-0.4-3.7-2.3-5.6l-135.9-136c-3.8-3.8-7.3-3.8-11.1 0L180.2 701.6l-11.1 156.7z" fill="#d81e06" p-id="10202"></path></svg>